<svg id="Layer_1" height="512" viewBox="0 0 512 512" width="512" xmlns="http://www.w3.org/2000/svg" data-name="Layer 1"><path d="m480.04 135.471a127.413 127.413 0 0 0 -101.58 6.22l-225.54 111.04-53.38-36.9a63.71 63.71 0 0 0 -59.69-6.82l-23.85 9.44 93.17 75.64a64.388 64.388 0 0 0 42.37 14.62 32.652 32.652 0 0 0 11.36-2.06l317.76-125.81a24.27 24.27 0 0 0 -.62-45.37z" fill="#e5f5fd"/><path d="m39.85 229.011a63.71 63.71 0 0 1 59.69 6.82l47.342 32.726a12.494 12.494 0 0 0 12.623.932l93.335-45.948 62.09-30.57 63.53-31.28a127.413 127.413 0 0 1 101.58-6.22 23.715 23.715 0 0 1 13.86 12.82 24.752 24.752 0 0 0 2.1-10 23.909 23.909 0 0 0 -15.96-22.82 127.413 127.413 0 0 0 -101.58 6.22l-63.53 31.28-62.09 30.57-99.92 49.19-53.38-36.9a63.71 63.71 0 0 0 -59.69-6.82l-23.85 9.44 16.561 13.449z" fill="#b9c8db"/><path d="m314.93 172.971-62.09 30.57-83.76-53.98 30.93-18.81z" fill="#72bcef"/><path d="m288.84 185.541-105.76-44.98-14 9 83.76 53.98z" fill="#67b5f4"/><path d="m276.84 191.541-98.76-47.98-9 6 83.76 53.98z" fill="#50a6ea"/><path d="m364.59 210.051-12.58 21.73-88.28 152.46h-49.89l42.88-113.4 8.09-21.39z" fill="#72bcef"/><path d="m302.81 235.451-36 14-8.09 21.39-42.88 113.4h19z" fill="#67b5f4"/><path d="m284.81 242.451-18 7-8.09 21.39-42.88 113.4h9z" fill="#50a6ea"/></svg>